<svg width="33" height="33" viewBox="0 0 33 33" fill="none" xmlns="http://www.w3.org/2000/svg">
<circle cx="16.6152" cy="16.7881" r="16" fill="white"/>
<path d="M16.6142 12.9961C15.8642 12.9961 15.1311 13.2185 14.5075 13.6351C13.8839 14.0518 13.3979 14.644 13.1109 15.3369C12.8239 16.0298 12.7488 16.7922 12.8951 17.5278C13.0414 18.2633 13.4026 18.939 13.9329 19.4693C14.4632 19.9996 15.1389 20.3608 15.8744 20.5071C16.61 20.6534 17.3724 20.5783 18.0653 20.2913C18.7582 20.0043 19.3504 19.5183 19.7671 18.8947C20.1837 18.2711 20.4061 17.538 20.4061 16.788C20.4061 16.29 20.3081 15.797 20.1175 15.3369C19.9269 14.8768 19.6476 14.4588 19.2955 14.1067C18.9434 13.7546 18.5254 13.4753 18.0653 13.2847C17.6053 13.0942 17.1122 12.9961 16.6142 12.9961ZM16.6142 19.2497C16.1273 19.2497 15.6514 19.1053 15.2465 18.8348C14.8417 18.5643 14.5262 18.1799 14.3398 17.73C14.1535 17.2802 14.1048 16.7852 14.1998 16.3077C14.2948 15.8302 14.5292 15.3915 14.8735 15.0473C15.2178 14.703 15.6564 14.4685 16.134 14.3736C16.6115 14.2786 17.1065 14.3273 17.5563 14.5137C18.0061 14.7 18.3906 15.0155 18.6611 15.4203C18.9316 15.8252 19.0759 16.3011 19.0759 16.788C19.076 17.1113 19.0123 17.4314 18.8886 17.7301C18.7649 18.0288 18.5836 18.3002 18.355 18.5288C18.1264 18.7574 17.855 18.9387 17.5563 19.0624C17.2576 19.1861 16.9375 19.2498 16.6142 19.2497Z" fill="#1C1C1A"/>
<path d="M23.955 13.7434C23.9429 13.1308 23.827 12.5247 23.612 11.951C23.4263 11.4583 23.1356 11.012 22.7602 10.6428C22.3916 10.267 21.9454 9.97633 21.4527 9.79101C20.879 9.57596 20.2728 9.45998 19.6602 9.44803C18.8728 9.41218 18.6211 9.40332 16.6157 9.40332C14.6103 9.40332 14.3584 9.41164 13.5705 9.44803C12.958 9.46013 12.3519 9.57611 11.7781 9.79101C11.2853 9.97649 10.8389 10.2672 10.47 10.6428C10.094 11.0115 9.80326 11.458 9.61821 11.951C9.40331 12.5247 9.28733 13.1308 9.27523 13.7434C9.23883 14.5308 9.23047 14.7825 9.23047 16.7879C9.23047 18.7934 9.23883 19.0451 9.27521 19.8324C9.28732 20.445 9.4033 21.0511 9.61821 21.6249C9.80331 22.1179 10.094 22.5644 10.47 22.9331C10.8391 23.3085 11.2855 23.5991 11.7781 23.7848C12.3519 23.9996 12.958 24.1156 13.5705 24.1278C14.3584 24.1636 14.6097 24.1726 16.6151 24.1726C18.6205 24.1726 18.8723 24.1642 19.6596 24.1278C20.2722 24.1157 20.8783 23.9997 21.4521 23.7848C21.9427 23.5951 22.3883 23.305 22.7603 22.9331C23.1322 22.5611 23.4223 22.1155 23.612 21.6249C23.8272 21.0512 23.9432 20.4451 23.955 19.8324C23.9908 19.0445 23.9992 18.7934 23.9992 16.7879C23.9992 14.7825 23.9908 14.5308 23.955 13.7434ZM22.6265 19.7722C22.6208 20.2405 22.5349 20.7044 22.3725 21.1436C22.2496 21.4621 22.0614 21.7513 21.8199 21.9926C21.5785 22.2339 21.2892 22.422 20.9707 22.5448C20.5316 22.7076 20.0677 22.7935 19.5993 22.7988C18.8209 22.8346 18.5871 22.8418 16.6151 22.8418C14.643 22.8418 14.4098 22.8346 13.6317 22.7988C13.1633 22.7935 12.6994 22.7075 12.2603 22.5448C11.9395 22.4262 11.6493 22.2375 11.4109 21.9924C11.1654 21.7545 10.9766 21.4644 10.8585 21.1436C10.6957 20.7045 10.6098 20.2406 10.6045 19.7723C10.5687 18.9939 10.5615 18.7601 10.5615 16.788C10.5615 14.8159 10.5693 14.5828 10.6045 13.8037C10.6104 13.3355 10.6963 12.8717 10.8585 12.4324C10.977 12.1116 11.1658 11.8214 11.4109 11.583C11.6489 11.3374 11.9392 11.1486 12.2603 11.0306C12.6994 10.8678 13.1633 10.7819 13.6317 10.7766C14.4101 10.7408 14.6439 10.7336 16.6151 10.7336C18.5863 10.7336 18.8203 10.7414 19.5993 10.7766C20.0676 10.7825 20.5314 10.8684 20.9707 11.0306C21.2893 11.1534 21.5787 11.3416 21.8201 11.583C22.0616 11.8244 22.2497 12.1138 22.3725 12.4324C22.5353 12.8715 22.6212 13.3354 22.6265 13.8037C22.6623 14.5828 22.6695 14.816 22.6695 16.788C22.6695 18.76 22.6623 18.9932 22.6265 19.7722Z" fill="#1C1C1A"/>
<path d="M20.558 11.96C20.3231 11.96 20.0974 12.0534 19.9313 12.2196C19.7652 12.3857 19.6719 12.6111 19.6719 12.846C19.6719 13.081 19.7653 13.3063 19.9314 13.4725C20.0976 13.6386 20.3229 13.732 20.5579 13.732C20.7928 13.732 21.0182 13.6386 21.1843 13.4725C21.3505 13.3063 21.4439 13.081 21.4439 12.846C21.4439 12.6111 21.3506 12.3857 21.1845 12.2196C21.0183 12.0534 20.793 11.96 20.558 11.96Z" fill="#1C1C1A"/>
</svg>
