<svg width="33" height="33" viewBox="0 0 33 33" fill="none" xmlns="http://www.w3.org/2000/svg">
<circle cx="16.3066" cy="16.7881" r="16" fill="white"/>
<circle cx="16.3066" cy="16.7881" r="16" fill="white"/>
<path d="M11.028 13.0853H11.0066C10.774 13.0993 10.5409 13.0652 10.322 12.9851C10.1031 12.9051 9.90312 12.7807 9.73444 12.6199C9.56576 12.4591 9.43205 12.2652 9.34167 12.0503C9.25128 11.8355 9.20616 11.6043 9.20912 11.3713C9.21208 11.1382 9.26306 10.9083 9.35886 10.6958C9.45467 10.4834 9.59326 10.2929 9.76597 10.1364C9.93868 9.9799 10.1418 9.86068 10.3626 9.78619C10.5835 9.7117 10.8173 9.68355 11.0496 9.70348C11.2829 9.68658 11.5173 9.71814 11.7379 9.79618C11.9584 9.87423 12.1605 9.99707 12.3313 10.157C12.5021 10.3169 12.638 10.5104 12.7304 10.7254C12.8228 10.9403 12.8697 11.1721 12.8682 11.406C12.8668 11.64 12.8169 11.8711 12.7217 12.0849C12.6266 12.2987 12.4882 12.4904 12.3154 12.6482C12.1426 12.8059 11.939 12.9261 11.7174 13.0014C11.4959 13.0766 11.2611 13.1051 11.028 13.0853Z" fill="#1C1C1A"/>
<path d="M9.52148 15.3623H12.5565V24.4673H9.52148V15.3623Z" fill="#1C1C1A"/>
<path d="M20.5227 15.3623C20.0113 15.3637 19.5068 15.4807 19.0469 15.7045C18.5871 15.9283 18.1837 16.2532 17.8671 16.6548V15.3623H14.832V24.4673H17.8671V20.2942C17.8671 19.8917 18.027 19.5057 18.3115 19.2211C18.5961 18.9366 18.9821 18.7767 19.3846 18.7767C19.7871 18.7767 20.1731 18.9366 20.4576 19.2211C20.7422 19.5057 20.9021 19.8917 20.9021 20.2942V24.4673H23.9372V18.7767C23.9372 18.3283 23.8488 17.8843 23.6772 17.4701C23.5057 17.0558 23.2542 16.6794 22.9371 16.3624C22.62 16.0453 22.2436 15.7938 21.8294 15.6222C21.4151 15.4506 20.9711 15.3623 20.5227 15.3623Z" fill="#1C1C1A"/>
</svg>
