<svg width="143" height="41" viewBox="0 0 143 41" fill="none" xmlns="http://www.w3.org/2000/svg">
<path d="M14.0013 0.52285L3.2218 38.7774C3.02613 39.442 2.72415 39.8319 2.31376 39.949C1.90406 40.0664 1.26857 40.1246 0.410043 40.1246H0V40.4761H9.08047V40.1246H7.02957C5.70144 40.1246 4.7643 40.0664 4.21781 39.949C3.67028 39.8319 3.53384 39.3249 3.80777 38.4255L7.2055 26.2409H18.0435L21.2068 38.0158C21.4413 38.9145 21.3138 39.4905 20.8262 39.7436C20.3375 39.9982 19.4098 40.1246 18.0435 40.1246H16.8131V40.4761H32.7482V40.1246H31.8693C30.9702 40.1246 30.3354 40.0279 29.9645 39.8319C29.5933 39.6369 29.3103 39.2075 29.1153 38.5429L18.2191 0.52285H14.0013ZM12.7708 6.32233L17.8091 25.2449H7.49849L12.7708 6.32233Z" fill="#151515"/>
<path d="M26.7173 0.52285L24.2695 0.539474L30.7595 26.2409C30.9957 27.177 32.2896 31.7751 33.9228 38.0158C34.2023 39.0842 34.427 39.9511 34.5631 40.4761H45.4642V40.1246H44.5853C43.6862 40.1246 43.0514 40.0279 42.6809 39.8319C42.3093 39.6369 42.0267 39.2075 41.8317 38.5429L30.9355 0.52285H26.7173Z" fill="#151515"/>
<rect x="49.6211" y="0.5" width="0.779217" height="40" fill="#151515"/>
<path d="M57.2899 32.009V32.5434H55.152V33.801H57.0069V34.3355H55.152V35.7502H57.3213V36.2847H54.5547V32.009H57.2899Z" fill="#151515"/>
<path d="M62.1303 36.3475C61.6089 36.3484 61.0901 36.2743 60.5898 36.1274L60.6904 35.6244C61.2123 35.7502 61.6965 35.813 62.1303 35.813C62.4259 35.813 62.6522 35.7502 62.8094 35.6181C62.923 35.5287 63.0008 35.4014 63.0285 35.2594C63.0562 35.1175 63.032 34.9703 62.9603 34.8447C62.8981 34.7498 62.8111 34.6737 62.7088 34.6246C62.6151 34.5723 62.516 34.5302 62.4133 34.4989C62.2682 34.4497 62.1214 34.4057 61.9732 34.3668C61.6235 34.2861 61.2967 34.127 61.0174 33.9015C60.8993 33.7999 60.8053 33.6733 60.7423 33.5308C60.6792 33.3883 60.6486 33.2336 60.6527 33.0778C60.6527 32.6943 60.7911 32.4051 61.0614 32.2227C61.3318 32.0341 61.6902 31.946 62.1303 31.946C62.5956 31.946 63.0735 32.0215 63.5765 32.1661L63.4382 32.6691C63.0109 32.5562 62.5721 32.4929 62.1303 32.4805C61.8348 32.4805 61.621 32.5371 61.4827 32.6503C61.4172 32.7043 61.3649 32.7726 61.33 32.85C61.2951 32.9274 61.2785 33.0118 61.2815 33.0967C61.2815 33.2099 61.3129 33.3105 61.3758 33.4048C61.4514 33.4995 61.5484 33.5749 61.6588 33.6249C61.8895 33.7327 62.1322 33.813 62.3819 33.8638C63.2433 34.0587 63.6708 34.4674 63.6708 35.0899C63.6814 35.2691 63.648 35.4482 63.5734 35.6115C63.4989 35.7748 63.3856 35.9174 63.2433 36.0268C62.918 36.254 62.5266 36.3667 62.1303 36.3475Z" fill="#151515"/>
<path d="M69.6447 32.5434H68.4626V36.2847H67.8653V32.5434H66.6895V32.009H69.6447V32.5434Z" fill="#151515"/>
<path d="M74.53 35.8446C74.6998 35.8446 74.8444 35.8195 74.9702 35.7755C75.0959 35.7315 75.1902 35.6749 75.2594 35.6057C75.3286 35.5428 75.3852 35.4548 75.4229 35.3542C75.4619 35.2637 75.4894 35.1686 75.5046 35.0712C75.5172 34.9832 75.5235 34.8826 75.5235 34.7757V32.0091H76.1208V34.7757C76.1208 35.8258 75.5864 36.3477 74.5174 36.3477C73.4485 36.3477 72.9141 35.8258 72.9141 34.7757V32.0091H73.5114V34.7757C73.5114 34.9203 73.524 35.0398 73.5428 35.1467C73.5682 35.2633 73.6106 35.3756 73.6686 35.4799C73.7409 35.6021 73.8514 35.6971 73.983 35.7503C74.1571 35.8182 74.3432 35.8503 74.53 35.8446Z" fill="#151515"/>
<path d="M81.0392 36.2847H79.5176V32.009H81.0392C81.3788 32.009 81.668 32.0593 81.9069 32.1662C82.1353 32.2592 82.3319 32.4165 82.4728 32.6189C82.6086 32.8196 82.7066 33.0433 82.7621 33.2791C82.8241 33.5534 82.8537 33.8341 82.8501 34.1154C82.8501 35.5616 82.2465 36.2847 81.0392 36.2847ZM80.1149 35.7502H81.0392C81.4794 35.7502 81.7937 35.6056 81.9635 35.3226C82.1333 35.0334 82.2213 34.631 82.2213 34.1154C82.2213 33.6124 82.1333 33.2225 81.9635 32.9521C81.7937 32.6818 81.4856 32.5434 81.0392 32.5434H80.1149V35.7502Z" fill="#151515"/>
<path d="M86.7048 36.2847H86.1074V32.009H86.7048V36.2847Z" fill="#151515"/>
<path d="M91.7864 32.4488C91.574 32.4415 91.3628 32.4845 91.1702 32.5746C91.01 32.6552 90.8799 32.7853 90.7992 32.9455C90.7192 33.1104 90.6641 33.2863 90.6357 33.4674C90.57 33.903 90.57 34.346 90.6357 34.7816C90.6652 34.9664 90.7202 35.1463 90.7992 35.316C90.8788 35.4834 91.0084 35.6218 91.1702 35.7122C91.3615 35.8065 91.5732 35.8518 91.7864 35.8442C91.9813 35.8442 92.1574 35.8128 92.302 35.7499C92.4466 35.687 92.5661 35.6053 92.6478 35.5047C92.7379 35.3879 92.8061 35.2559 92.849 35.1148C92.9024 34.9643 92.9383 34.8082 92.9559 34.6495C92.993 34.2984 92.993 33.9443 92.9559 33.5932C92.9392 33.4384 92.9033 33.2863 92.849 33.1405C92.8067 33.0036 92.736 32.8772 92.6415 32.7695C92.5465 32.6654 92.4279 32.5856 92.2957 32.5368C92.1333 32.4745 91.9603 32.4446 91.7864 32.4488ZM92.6793 36.1775C92.3975 36.2983 92.0928 36.3563 91.7864 36.3472C91.478 36.3558 91.1713 36.2979 90.8873 36.1775C90.6534 36.0719 90.4563 35.8989 90.3214 35.6807C90.1907 35.4652 90.0972 35.2293 90.0447 34.9828C89.9252 34.4189 89.9252 33.8363 90.0447 33.2725C90.1013 33.021 90.1893 32.8009 90.3214 32.5934C90.4471 32.3859 90.6357 32.2224 90.8873 32.1155C91.1388 32.0024 91.4343 31.9458 91.7864 31.9458C92.0928 31.9367 92.3975 31.9947 92.6793 32.1155C92.9126 32.2127 93.1103 32.3796 93.2452 32.5934C93.38 32.8007 93.4759 33.0308 93.5281 33.2725C93.6476 33.8363 93.6476 34.4189 93.5281 34.9828C93.4753 35.2302 93.3796 35.4664 93.2452 35.6807C93.1102 35.8989 92.9131 36.0719 92.6793 36.1775Z" fill="#151515"/>
<path d="M139.642 32.4488C139.429 32.4415 139.218 32.4845 139.026 32.5746C138.865 32.6552 138.735 32.7853 138.655 32.9455C138.575 33.1104 138.52 33.2863 138.491 33.4674C138.425 33.903 138.425 34.346 138.491 34.7816C138.521 34.9664 138.576 35.1463 138.655 35.316C138.734 35.4834 138.864 35.6218 139.026 35.7122C139.217 35.8065 139.429 35.8518 139.642 35.8442C139.837 35.8442 140.013 35.8128 140.157 35.7499C140.302 35.687 140.422 35.6053 140.503 35.5047C140.593 35.3879 140.662 35.2559 140.705 35.1148C140.758 34.9643 140.794 34.8082 140.811 34.6495C140.848 34.2984 140.848 33.9443 140.811 33.5932C140.795 33.4384 140.759 33.2863 140.705 33.1405C140.662 33.0036 140.591 32.8772 140.497 32.7695C140.402 32.6654 140.283 32.5856 140.151 32.5368C139.989 32.4745 139.816 32.4446 139.642 32.4488ZM140.535 36.1775C140.253 36.2983 139.948 36.3563 139.642 36.3472C139.333 36.3558 139.027 36.2979 138.743 36.1775C138.509 36.0719 138.312 35.8989 138.177 35.6807C138.046 35.4652 137.953 35.2293 137.9 34.9828C137.781 34.4189 137.781 33.8363 137.9 33.2725C137.957 33.021 138.045 32.8009 138.177 32.5934C138.303 32.3859 138.491 32.2224 138.743 32.1155C138.994 32.0024 139.29 31.9458 139.642 31.9458C139.948 31.9367 140.253 31.9947 140.535 32.1155C140.768 32.2127 140.966 32.3796 141.101 32.5934C141.235 32.8007 141.331 33.0308 141.384 33.2725C141.503 33.8363 141.503 34.4189 141.384 34.9828C141.331 35.2302 141.235 35.4664 141.101 35.6807C140.966 35.8989 140.769 36.0719 140.535 36.1775Z" fill="#151515"/>
<path d="M101.94 32.0086V35.2154C101.94 35.6241 101.852 35.9133 101.683 36.0894C101.513 36.2591 101.268 36.3472 100.934 36.3472C100.739 36.347 100.543 36.3323 100.35 36.3032L100.406 35.8001C100.529 35.8182 100.653 35.8287 100.777 35.8316C100.966 35.8316 101.11 35.7813 101.205 35.6807C101.299 35.5801 101.343 35.4166 101.343 35.1839V32.0086H101.94Z" fill="#151515"/>
<path d="M106.952 35.8441C107.122 35.8441 107.266 35.819 107.392 35.775C107.518 35.731 107.612 35.6744 107.681 35.6052C107.75 35.5423 107.807 35.4543 107.845 35.3537C107.884 35.2632 107.911 35.1681 107.926 35.0707C107.939 34.9827 107.945 34.8821 107.945 34.7752V32.0086H108.543V34.7752C108.543 35.8253 108.008 36.3472 106.939 36.3472C105.87 36.3472 105.336 35.8253 105.336 34.7752V32.0086H105.933V34.7752C105.933 34.9198 105.946 35.0393 105.965 35.1462C105.99 35.2628 106.032 35.3751 106.09 35.4795C106.163 35.6016 106.273 35.6966 106.405 35.7498C106.579 35.8177 106.765 35.8498 106.952 35.8441Z" fill="#151515"/>
<path d="M115.157 36.2847H114.459L113.447 34.6184H112.535V36.2847H111.938V32.009H113.698C114.113 32.009 114.434 32.1347 114.666 32.3737C114.785 32.4992 114.878 32.6474 114.938 32.8094C114.999 32.9715 115.026 33.144 115.019 33.3168C115.027 33.6018 114.938 33.8811 114.767 34.1091C114.596 34.3318 114.346 34.4804 114.069 34.5241L115.157 36.2847ZM112.535 32.5434V34.0839H113.604C113.849 34.0839 114.044 34.0211 114.182 33.889C114.327 33.7633 114.402 33.5683 114.402 33.3168C114.408 33.2133 114.393 33.1096 114.358 33.0123C114.322 32.9149 114.266 32.8259 114.195 32.7509C114.121 32.6795 114.033 32.6241 113.937 32.5884C113.84 32.5527 113.738 32.5374 113.635 32.5434H112.535Z" fill="#151515"/>
<path d="M118.98 36.2847H118.383V32.009H118.98V36.2847Z" fill="#151515"/>
<path d="M123.895 36.2847H122.373V32.009H123.895C124.234 32.009 124.523 32.0593 124.762 32.1662C124.991 32.2592 125.187 32.4165 125.328 32.6189C125.464 32.8196 125.562 33.0433 125.618 33.2791C125.68 33.5534 125.709 33.8341 125.706 34.1154C125.706 35.5616 125.102 36.2847 123.895 36.2847ZM122.97 35.7502H123.895C124.335 35.7502 124.649 35.6056 124.819 35.3226C124.989 35.0334 125.077 34.631 125.077 34.1154C125.077 33.6124 124.989 33.2225 124.819 32.9521C124.649 32.6818 124.341 32.5434 123.895 32.5434H122.97V35.7502Z" fill="#151515"/>
<path d="M129.56 36.2847H128.963V32.009H129.56V36.2847Z" fill="#151515"/>
<path d="M132.818 34.1151C132.818 33.8007 132.844 33.5178 132.9 33.2726C132.957 33.0211 133.045 32.801 133.177 32.5935C133.303 32.386 133.491 32.2225 133.743 32.1156C133.994 32.0024 134.29 31.9458 134.642 31.9458C135.142 31.948 135.64 32.0221 136.12 32.1659L135.981 32.6689C135.558 32.5567 135.123 32.4934 134.686 32.4803C134.476 32.4742 134.267 32.5173 134.076 32.6061C133.916 32.6827 133.782 32.8053 133.692 32.9582C133.602 33.1189 133.539 33.2929 133.504 33.4738C133.464 33.6851 133.445 33.9 133.447 34.1151C133.447 34.6559 133.535 35.0772 133.718 35.3727C133.906 35.6682 134.221 35.8128 134.686 35.8128C135.032 35.8128 135.459 35.75 135.981 35.6242L136.12 36.1272C135.64 36.2711 135.142 36.3452 134.642 36.3473C134.386 36.3518 134.131 36.3136 133.887 36.2341C133.694 36.1665 133.516 36.0595 133.366 35.9197C133.227 35.7783 133.116 35.6119 133.039 35.4293C132.955 35.2339 132.896 35.0291 132.862 34.8194C132.832 34.5859 132.817 34.3506 132.818 34.1151Z" fill="#151515"/>
<mask id="mask0_97_181" style="mask-type:luminance" maskUnits="userSpaceOnUse" x="54" y="4" width="10" height="11">
<path d="M57.5081 4.72236L54.5547 14.5918H57.2916L57.7962 12.6472H60.2454L60.75 14.5918H63.6314L60.6776 4.72236H57.5081ZM59.0063 7.96426H59.0354L59.7266 10.4855H58.315L59.0063 7.96426Z" fill="white"/>
</mask>
<g mask="url(#mask0_97_181)">
<rect x="54.3242" y="4.47021" width="9.3506" height="10.3896" fill="#151515"/>
</g>
<mask id="mask1_97_181" style="mask-type:luminance" maskUnits="userSpaceOnUse" x="64" y="4" width="8" height="11">
<path d="M64.1055 4.7937V14.5918H71.0214V12.2863H66.6987V4.7937H64.1055Z" fill="white"/>
</mask>
<g mask="url(#mask1_97_181)">
<rect x="64.0195" y="4.4707" width="7.27269" height="10.3896" fill="#151515"/>
</g>
<mask id="mask2_97_181" style="mask-type:luminance" maskUnits="userSpaceOnUse" x="71" y="4" width="9" height="11">
<path d="M71.8155 4.7937V7.09916H75.3455V7.12859L71.5273 12.7185V14.5918H79.0196V12.2863H75.1298V12.2579L78.8755 6.66729V4.7937H71.8155Z" fill="white"/>
</mask>
<g mask="url(#mask2_97_181)">
<rect x="71.2949" y="4.4707" width="7.96532" height="10.3896" fill="#151515"/>
</g>
<mask id="mask3_97_181" style="mask-type:luminance" maskUnits="userSpaceOnUse" x="79" y="4" width="10" height="11">
<path d="M82.3343 4.72236L79.3809 14.5918H82.1182L82.6228 12.6472H85.0716L85.5762 14.5918H88.4579L85.5038 4.72236H82.3343ZM83.8328 7.96426H83.8615L84.5531 10.4855H83.1412L83.8328 7.96426Z" fill="white"/>
</mask>
<g mask="url(#mask3_97_181)">
<rect x="79.2598" y="4.47021" width="9.3506" height="10.3896" fill="#151515"/>
</g>
<mask id="mask4_97_181" style="mask-type:luminance" maskUnits="userSpaceOnUse" x="88" y="4" width="12" height="11">
<path d="M95.8476 4.7937L94.2196 10.2694H94.1905L92.39 4.7937H88.9316V14.5918H91.4532V9.4053H91.4823L93.1103 14.5918H94.9832L96.6836 9.4053H96.712V14.5918H99.3053V4.7937H95.8476Z" fill="white"/>
</mask>
<g mask="url(#mask4_97_181)">
<rect x="88.6094" y="4.47021" width="10.7359" height="10.3896" fill="#151515"/>
</g>
<mask id="mask5_97_181" style="mask-type:luminance" maskUnits="userSpaceOnUse" x="100" y="4" width="10" height="11">
<path d="M102.417 5.02516C101.812 5.27485 101.341 5.6326 101.005 6.0984C100.668 6.56627 100.424 7.09432 100.285 7.65408C100.141 8.22585 100.068 8.88179 100.068 9.62083C100.068 13.0304 101.581 14.7363 104.607 14.7363C107.633 14.7363 109.145 13.0304 109.145 9.62083C109.145 8.88179 109.074 8.22585 108.93 7.65408C108.791 7.09443 108.546 6.56643 108.209 6.0984C107.873 5.6326 107.402 5.27485 106.797 5.02516C106.192 4.77511 105.462 4.65044 104.607 4.65044C103.752 4.65044 103.022 4.77511 102.417 5.02516ZM103.173 11.8466C102.928 11.3625 102.806 10.6203 102.806 9.62083C102.806 8.64179 102.928 7.92801 103.173 7.48092C103.418 7.03485 103.896 6.81114 104.607 6.81114C105.318 6.81114 105.795 7.03485 106.041 7.48092C106.285 7.92801 106.408 8.64179 106.408 9.62083C106.408 10.6203 106.285 11.3625 106.041 11.8466C105.795 12.3322 105.318 12.5749 104.607 12.5749C103.896 12.5749 103.418 12.3322 103.173 11.8466Z" fill="white"/>
</mask>
<g mask="url(#mask5_97_181)">
<rect x="100.037" y="4.47021" width="9.3506" height="10.3896" fill="#151515"/>
</g>
<mask id="mask6_97_181" style="mask-type:luminance" maskUnits="userSpaceOnUse" x="109" y="4" width="10" height="11">
<path d="M109.908 4.7937V14.5918H112.502V11.4223H113.251L115.023 14.5918H118.049L115.96 10.9894C117.112 10.5194 117.689 9.55837 117.689 8.10798C117.689 7.06175 117.383 6.2472 116.774 5.66539C116.164 5.08461 115.316 4.7937 114.231 4.7937H109.908ZM112.502 7.09916H113.942C114.279 7.09916 114.543 7.16946 114.735 7.30868C114.927 7.4479 115.023 7.71456 115.023 8.10798C115.023 8.5021 114.927 8.76808 114.735 8.9073C114.543 9.04721 114.279 9.11681 113.942 9.11681H112.502V7.09916Z" fill="white"/>
</mask>
<g mask="url(#mask6_97_181)">
<rect x="109.734" y="4.46973" width="8.65796" height="10.3896" fill="#151515"/>
</g>
<mask id="mask7_97_181" style="mask-type:luminance" maskUnits="userSpaceOnUse" x="118" y="4" width="10" height="11">
<path d="M121.219 4.72236L118.266 14.5918H121.003L121.508 12.6472H123.957L124.461 14.5918H127.343L124.389 4.72236H121.219ZM122.718 7.96426H122.747L123.438 10.4855H122.026L122.718 7.96426Z" fill="white"/>
</mask>
<g mask="url(#mask7_97_181)">
<rect x="118.047" y="4.47021" width="9.3506" height="10.3896" fill="#151515"/>
</g>
<mask id="mask8_97_181" style="mask-type:luminance" maskUnits="userSpaceOnUse" x="54" y="17" width="11" height="12">
<path d="M56.6216 18.4599C56.0121 18.9112 55.707 19.5356 55.707 20.3332C55.707 20.64 55.7721 20.9382 55.9016 21.226C56.0315 21.5141 56.269 21.8792 56.615 22.3207C55.8174 22.8205 55.2748 23.279 54.9866 23.697C54.7019 24.1042 54.5509 24.5899 54.5548 25.0868C54.5548 25.9329 54.8571 26.6071 55.4621 27.1121C56.0675 27.616 56.9894 27.8684 58.2285 27.8684C59.3426 27.8684 60.3414 27.6035 61.2252 27.0754L62.4068 28.3003L63.9919 26.5715L62.9544 25.5055C63.6172 24.6026 64.011 23.6606 64.136 22.6809H61.8306C61.7727 23.0459 61.6238 23.4445 61.3838 23.8774L60.0155 22.6089C61.1289 21.9273 61.6865 21.1637 61.6865 20.318C61.6865 19.5311 61.4319 18.9112 60.9229 18.4599C60.4138 18.0083 59.7076 17.7825 58.8048 17.7825C57.9594 17.7825 57.2322 18.0083 56.6216 18.4599ZM58.0844 20.2314C58.0844 19.9824 58.1423 19.7881 58.2576 19.6478C58.3726 19.5086 58.5308 19.439 58.7331 19.439C59.1649 19.439 59.3811 19.7032 59.3811 20.2314C59.3811 20.5774 59.1265 20.9334 58.6174 21.2984C58.2618 20.9039 58.0844 20.549 58.0844 20.2314ZM57.5224 25.4982C57.2727 25.3112 57.148 25.0442 57.148 24.6979C57.148 24.2664 57.3831 23.8816 57.8538 23.5453L59.7267 25.5055C59.3139 25.6873 58.8623 25.7791 58.3726 25.7791C58.0554 25.7791 57.7721 25.6856 57.5224 25.4982Z" fill="white"/>
</mask>
<g mask="url(#mask8_97_181)">
<rect x="54.3223" y="17.6304" width="10.0432" height="10.7359" fill="#151515"/>
</g>
<mask id="mask9_97_181" style="mask-type:luminance" maskUnits="userSpaceOnUse" x="66" y="17" width="10" height="11">
<path d="M69.8268 17.8546L66.873 27.7236H69.6104L70.1146 25.7787H72.5638L73.0687 27.7236H75.9501L72.9963 17.8546H69.8268ZM71.325 21.0965H71.3541L72.0453 23.6173H70.6337L71.325 21.0965Z" fill="white"/>
</mask>
<g mask="url(#mask9_97_181)">
<rect x="66.791" y="17.6299" width="9.3506" height="10.3896" fill="#151515"/>
</g>
<mask id="mask10_97_181" style="mask-type:luminance" maskUnits="userSpaceOnUse" x="76" y="17" width="8" height="11">
<path d="M77.3033 18.4881C76.602 18.9587 76.2515 19.6843 76.2515 20.6637C76.2515 22.2193 77.1883 23.2767 79.0615 23.8332C79.2146 23.8813 79.4383 23.944 79.7313 24.0205C79.9368 24.0731 80.141 24.1308 80.3436 24.1937C80.4804 24.2405 80.6151 24.2935 80.747 24.3527C80.9005 24.4195 81.0061 24.4988 81.0639 24.5899C81.1234 24.6876 81.1534 24.8004 81.1505 24.9147C81.1505 25.3463 80.7661 25.5624 79.998 25.5624C78.9604 25.5624 77.8079 25.4186 76.5396 25.1302L76.1074 27.2912C77.3689 27.6734 78.6798 27.8678 79.998 27.8682C81.1505 27.8682 82.0866 27.606 82.8073 27.0824C83.528 26.5598 83.8878 25.7639 83.8878 24.6976C83.8878 23.1419 82.9029 22.1331 80.9344 21.6728C80.8821 21.6603 80.8291 21.6504 80.7758 21.6431C80.1129 21.4896 79.6496 21.3553 79.3857 21.2403C79.1207 21.125 78.9891 20.957 78.9891 20.736C78.9891 20.5244 79.0826 20.3641 79.27 20.2533C79.4574 20.1428 79.7001 20.0874 79.998 20.0874C80.7471 20.0874 81.7552 20.2311 83.0234 20.5203L83.5997 18.3586C82.3221 17.9741 81.1218 17.7823 79.998 17.7823C78.9026 17.7823 78.0046 18.0178 77.3033 18.4881Z" fill="white"/>
</mask>
<g mask="url(#mask10_97_181)">
<rect x="75.7949" y="17.6299" width="8.31164" height="10.3896" fill="#151515"/>
</g>
<mask id="mask11_97_181" style="mask-type:luminance" maskUnits="userSpaceOnUse" x="84" y="17" width="10" height="11">
<path d="M86.8582 18.1575C86.2535 18.4075 85.7825 18.7649 85.4466 19.2304C85.1094 19.6984 84.8649 20.2265 84.7262 20.7864C84.5821 21.3585 84.5098 22.0138 84.5098 22.7535C84.5098 26.163 86.0228 27.8687 89.0483 27.8687C92.0741 27.8687 93.5868 26.163 93.5868 22.7535C93.5868 22.0138 93.5147 21.3585 93.3707 20.7864C93.232 20.2265 92.9875 19.6984 92.6503 19.2304C92.3141 18.7649 91.8434 18.4075 91.238 18.1575C90.633 17.9078 89.9033 17.7828 89.0483 17.7828C88.1929 17.7828 87.4635 17.9078 86.8582 18.1575ZM87.6145 24.9793C87.37 24.4948 87.2471 23.7526 87.2471 22.7535C87.2471 21.7738 87.37 21.0603 87.6145 20.6136C87.8594 20.1675 88.3373 19.9435 89.0483 19.9435C89.7593 19.9435 90.2372 20.1675 90.4817 20.6136C90.7269 21.0603 90.8491 21.7738 90.8491 22.7535C90.8491 23.7526 90.7269 24.4948 90.4817 24.9793C90.2372 25.4645 89.7593 25.7069 89.0483 25.7069C88.3373 25.7069 87.8594 25.4645 87.6145 24.9793Z" fill="white"/>
</mask>
<g mask="url(#mask11_97_181)">
<rect x="84.4531" y="17.6304" width="9.3506" height="10.3896" fill="#151515"/>
</g>
<mask id="mask12_97_181" style="mask-type:luminance" maskUnits="userSpaceOnUse" x="94" y="17" width="9" height="11">
<path d="M96.7273 18.1575C96.1223 18.4075 95.6516 18.7649 95.3157 19.2304C94.9786 19.6984 94.734 20.2266 94.595 20.7864C94.4513 21.3585 94.3789 22.0138 94.3789 22.7535C94.3789 26.163 95.892 27.8687 98.9174 27.8687C100.089 27.8687 101.314 27.6761 102.591 27.2917L102.015 25.1306C100.748 25.4191 99.787 25.5628 99.1339 25.5628C98.4419 25.5628 97.9332 25.337 97.6066 24.8854C97.2797 24.4342 97.1166 23.7242 97.1166 22.7535C97.1166 20.9765 97.7891 20.0879 99.1339 20.0879C99.787 20.0879 100.748 20.2316 102.015 20.5208L102.591 18.359C101.314 17.9746 100.089 17.7828 98.9174 17.7828C98.0623 17.7828 97.3327 17.9078 96.7273 18.1575Z" fill="white"/>
</mask>
<g mask="url(#mask12_97_181)">
<rect x="94.1523" y="17.6304" width="8.65796" height="10.3896" fill="#151515"/>
</g>
<mask id="mask13_97_181" style="mask-type:luminance" maskUnits="userSpaceOnUse" x="103" y="17" width="3" height="11">
<path d="M103.211 27.7236H105.804V17.9255H103.211V27.7236Z" fill="white"/>
</mask>
<g mask="url(#mask13_97_181)">
<rect x="103.154" y="17.6304" width="2.77055" height="10.3896" fill="#151515"/>
</g>
<mask id="mask14_97_181" style="mask-type:luminance" maskUnits="userSpaceOnUse" x="106" y="17" width="10" height="11">
<path d="M109.233 17.8546L106.279 27.7236H109.017L109.521 25.7787H111.971L112.475 27.7236H115.356L112.403 17.8546H109.233ZM110.731 21.0965H110.76L111.452 23.6173H110.04L110.731 21.0965Z" fill="white"/>
</mask>
<g mask="url(#mask14_97_181)">
<rect x="106.273" y="17.6299" width="9.3506" height="10.3896" fill="#151515"/>
</g>
<mask id="mask15_97_181" style="mask-type:luminance" maskUnits="userSpaceOnUse" x="115" y="17" width="10" height="11">
<path d="M115.832 17.9264V27.7241H119.65C120.505 27.7241 121.235 27.5991 121.84 27.3498C122.445 27.0997 122.916 26.742 123.252 26.2762C123.589 25.8081 123.834 25.2801 123.973 24.7205C124.117 24.1484 124.188 23.4931 124.188 22.7534C124.188 22.0136 124.117 21.3626 123.973 20.8008C123.836 20.2557 123.591 19.7437 123.252 19.2954C122.916 18.8542 122.445 18.5151 121.84 18.2796C121.235 18.0441 120.505 17.9264 119.65 17.9264H115.832ZM118.425 20.2315H119.65C120.38 20.2315 120.863 20.4171 121.098 20.7863C121.333 21.1565 121.451 21.8121 121.451 22.7534C121.451 23.7141 121.331 24.3984 121.091 24.8064C120.851 25.2147 120.371 25.419 119.65 25.419H118.425V20.2315Z" fill="white"/>
</mask>
<g mask="url(#mask15_97_181)">
<rect x="115.623" y="17.6309" width="8.65796" height="10.3896" fill="#151515"/>
</g>
<mask id="mask16_97_181" style="mask-type:luminance" maskUnits="userSpaceOnUse" x="124" y="17" width="11" height="11">
<path d="M127.329 18.1575C126.724 18.4075 126.253 18.7649 125.917 19.2304C125.58 19.6984 125.336 20.2265 125.197 20.7864C125.053 21.3585 124.98 22.0138 124.98 22.7535C124.98 26.163 126.494 27.8687 129.519 27.8687C132.545 27.8687 134.057 26.163 134.057 22.7535C134.057 22.0138 133.986 21.3585 133.842 20.7864C133.703 20.2266 133.458 19.6985 133.121 19.2304C132.785 18.7649 132.314 18.4075 131.709 18.1575C131.104 17.9078 130.374 17.7828 129.519 17.7828C128.664 17.7828 127.934 17.9078 127.329 18.1575ZM128.086 24.9793C127.841 24.4948 127.718 23.7526 127.718 22.7535C127.718 21.7738 127.841 21.0603 128.086 20.6136C128.33 20.1675 128.808 19.9435 129.519 19.9435C130.23 19.9435 130.708 20.1675 130.953 20.6136C131.198 21.0603 131.32 21.7738 131.32 22.7535C131.32 23.7526 131.198 24.4948 130.953 24.9793C130.708 25.4645 130.23 25.7069 129.519 25.7069C128.808 25.7069 128.33 25.4645 128.086 24.9793Z" fill="white"/>
</mask>
<g mask="url(#mask16_97_181)">
<rect x="124.973" y="17.6304" width="9.3506" height="10.3896" fill="#151515"/>
</g>
<mask id="mask17_97_181" style="mask-type:luminance" maskUnits="userSpaceOnUse" x="134" y="17" width="9" height="11">
<path d="M135.702 18.4881C135 18.9587 134.65 19.6843 134.65 20.6637C134.65 22.2193 135.586 23.2767 137.459 23.8332C137.613 23.8813 137.836 23.944 138.129 24.0205C138.335 24.0731 138.539 24.1308 138.742 24.1937C138.857 24.2321 138.992 24.2848 139.145 24.3527C139.299 24.4195 139.405 24.4988 139.462 24.5899C139.522 24.6877 139.552 24.8004 139.549 24.9147C139.549 25.3463 139.164 25.5624 138.396 25.5624C137.359 25.5624 136.206 25.4186 134.938 25.1302L134.506 27.2912C135.767 27.6734 137.078 27.8678 138.396 27.8682C139.549 27.8682 140.485 27.606 141.205 27.0824C141.926 26.5598 142.286 25.7639 142.286 24.6976C142.286 23.1419 141.301 22.1331 139.332 21.6728C139.28 21.6602 139.227 21.6503 139.174 21.6431C138.511 21.4896 138.048 21.3553 137.784 21.2403C137.519 21.125 137.387 20.957 137.387 20.736C137.387 20.5244 137.481 20.3641 137.668 20.2533C137.855 20.1428 138.098 20.0874 138.396 20.0874C139.145 20.0874 140.154 20.2311 141.422 20.5203L141.998 18.3586C140.721 17.9741 139.52 17.7823 138.396 17.7823C137.301 17.7823 136.403 18.0178 135.702 18.4881Z" fill="white"/>
</mask>
<g mask="url(#mask17_97_181)">
<rect x="134.324" y="17.6304" width="7.96532" height="10.3896" fill="#151515"/>
</g>
</svg>
