<svg width="200" height="56" viewBox="0 0 200 56" fill="none" xmlns="http://www.w3.org/2000/svg">
<path d="M19.9456 0.0327721L4.85428 53.5891C4.58034 54.5195 4.15756 55.0655 3.58302 55.2294C3.00944 55.3937 2.11975 55.4752 0.917811 55.4752H0.34375V55.9673H13.0564V55.4752H10.1852C8.32578 55.4752 7.01378 55.3937 6.24869 55.2294C5.48215 55.0655 5.29113 54.3557 5.67464 53.0965L10.4315 36.0381H25.6047L30.0333 52.5229C30.3616 53.7811 30.1831 54.5874 29.5005 54.9418C28.8164 55.2982 27.5175 55.4752 25.6047 55.4752H23.8821V55.9673H46.1913V55.4752H44.9608C43.7021 55.4752 42.8134 55.3399 42.2941 55.0655C41.7744 54.7925 41.3782 54.1913 41.1053 53.2609L25.8505 0.0327721H19.9456ZM18.2229 8.15204L25.2765 34.6437H10.8416L18.2229 8.15204Z" fill="white"/>
<path d="M37.7472 0.0322838L34.3203 0.0555611L43.4063 36.0376C43.737 37.3481 45.5484 43.7855 47.8349 52.5224C48.2262 54.0182 48.5409 55.2318 48.7314 55.9668H63.9929V55.4747H62.7624C61.5037 55.4747 60.615 55.3394 60.0962 55.065C59.576 54.792 59.1803 54.1908 58.9074 53.2604L43.6526 0.0322838H37.7472Z" fill="white"/>
<rect x="69.8105" width="1.0909" height="56" fill="white"/>
<path d="M80.55 44.1127V44.8609H77.557V46.6215H80.1538V47.3697H77.557V49.3504H80.594V50.0986H76.7207V44.1127H80.55Z" fill="white"/>
<path d="M87.3286 50.1865C86.5986 50.1878 85.8723 50.0841 85.1719 49.8784L85.3127 49.1742C86.0434 49.3502 86.7212 49.4383 87.3286 49.4383C87.7423 49.4383 88.0592 49.3502 88.2793 49.1654C88.4384 49.0401 88.5472 48.8619 88.586 48.6632C88.6247 48.4645 88.5909 48.2585 88.4906 48.0826C88.4035 47.9497 88.2817 47.8432 88.1384 47.7745C88.0072 47.7013 87.8685 47.6422 87.7247 47.5984C87.5215 47.5296 87.316 47.468 87.1085 47.4136C86.6189 47.3005 86.1614 47.0778 85.7705 46.7622C85.6051 46.6199 85.4736 46.4426 85.3852 46.2431C85.2969 46.0437 85.2541 45.827 85.2599 45.609C85.2599 45.072 85.4536 44.6671 85.8321 44.4118C86.2106 44.1477 86.7124 44.0245 87.3286 44.0245C87.98 44.0245 88.649 44.1301 89.3532 44.3326L89.1596 45.0368C88.5614 44.8787 87.947 44.79 87.3286 44.7727C86.9148 44.7727 86.6155 44.8519 86.4219 45.0104C86.3301 45.086 86.257 45.1817 86.2081 45.29C86.1593 45.3984 86.136 45.5166 86.1402 45.6354C86.1402 45.7938 86.1842 45.9347 86.2722 46.0667C86.3781 46.1993 86.5138 46.3049 86.6684 46.3748C86.9914 46.5258 87.3312 46.6381 87.6807 46.7094C88.8867 46.9822 89.4853 47.5544 89.4853 48.4259C89.5001 48.6768 89.4532 48.9275 89.3489 49.1561C89.2446 49.3847 89.0859 49.5843 88.8867 49.7375C88.4313 50.0555 87.8833 50.2134 87.3286 50.1865Z" fill="white"/>
<path d="M97.8483 44.8609H96.1933V50.0986H95.3571V44.8609H93.7109V44.1127H97.8483V44.8609Z" fill="white"/>
<path d="M104.688 49.4823C104.926 49.4823 105.128 49.4471 105.304 49.3855C105.48 49.3238 105.612 49.2446 105.709 49.1478C105.806 49.0598 105.885 48.9365 105.938 48.7957C105.993 48.669 106.031 48.5359 106.053 48.3995C106.07 48.2763 106.079 48.1354 106.079 47.9858V44.1125H106.915V47.9858C106.915 49.4559 106.167 50.1865 104.671 50.1865C103.174 50.1865 102.426 49.4559 102.426 47.9858V44.1125H103.262V47.9858C103.262 48.1883 103.28 48.3555 103.306 48.5052C103.342 48.6685 103.401 48.8257 103.482 48.9717C103.583 49.1427 103.738 49.2757 103.922 49.3502C104.166 49.4453 104.427 49.4902 104.688 49.4823Z" fill="white"/>
<path d="M113.798 50.0986H111.668V44.1127H113.798C114.274 44.1127 114.679 44.1831 115.013 44.3327C115.333 44.463 115.608 44.6832 115.805 44.9665C115.995 45.2475 116.133 45.5607 116.21 45.8908C116.297 46.2749 116.338 46.6679 116.333 47.0616C116.333 49.0863 115.488 50.0986 113.798 50.0986ZM112.504 49.3504H113.798C114.414 49.3504 114.855 49.1479 115.092 48.7518C115.33 48.3469 115.453 47.7835 115.453 47.0616C115.453 46.3574 115.33 45.8116 115.092 45.4331C114.855 45.0546 114.423 44.8609 113.798 44.8609H112.504V49.3504Z" fill="white"/>
<path d="M121.729 50.0986H120.893V44.1127H121.729V50.0986Z" fill="white"/>
<path d="M128.843 44.7284C128.546 44.7181 128.25 44.7785 127.98 44.9045C127.756 45.0174 127.574 45.1995 127.461 45.4238C127.349 45.6547 127.272 45.9009 127.232 46.1545C127.14 46.7643 127.14 47.3845 127.232 47.9943C127.273 48.2531 127.35 48.5049 127.461 48.7425C127.572 48.9768 127.754 49.1706 127.98 49.2971C128.248 49.4292 128.545 49.4927 128.843 49.482C129.116 49.482 129.363 49.438 129.565 49.3499C129.767 49.2619 129.935 49.1475 130.049 49.0066C130.175 48.8432 130.271 48.6583 130.331 48.4608C130.406 48.2502 130.456 48.0316 130.48 47.8094C130.532 47.3178 130.532 46.8221 130.48 46.3305C130.457 46.1139 130.407 45.901 130.331 45.6967C130.272 45.5051 130.173 45.3281 130.04 45.1774C129.907 45.0316 129.741 44.9199 129.556 44.8517C129.329 44.7644 129.087 44.7226 128.843 44.7284ZM130.093 49.9485C129.699 50.1178 129.272 50.1989 128.843 50.1862C128.411 50.1982 127.982 50.1172 127.584 49.9485C127.257 49.8007 126.981 49.5586 126.792 49.2531C126.609 48.9514 126.478 48.6211 126.405 48.276C126.237 47.4866 126.237 46.671 126.405 45.8816C126.484 45.5295 126.607 45.2214 126.792 44.9309C126.968 44.6404 127.232 44.4115 127.584 44.2619C127.936 44.1034 128.35 44.0242 128.843 44.0242C129.272 44.0115 129.699 44.0926 130.093 44.2619C130.42 44.3979 130.697 44.6315 130.885 44.9309C131.074 45.221 131.208 45.5432 131.282 45.8816C131.449 46.671 131.449 47.4866 131.282 48.276C131.208 48.6223 131.074 48.9531 130.885 49.2531C130.696 49.5586 130.421 49.8007 130.093 49.9485Z" fill="white"/>
<path d="M195.841 44.7284C195.544 44.7181 195.248 44.7785 194.979 44.9045C194.754 45.0174 194.572 45.1995 194.459 45.4238C194.347 45.6547 194.27 45.9009 194.23 46.1545C194.138 46.7643 194.138 47.3845 194.23 47.9943C194.271 48.2531 194.349 48.5049 194.459 48.7425C194.571 48.9768 194.752 49.1706 194.979 49.2971C195.246 49.4292 195.543 49.4927 195.841 49.482C196.114 49.482 196.361 49.438 196.563 49.3499C196.766 49.2619 196.933 49.1475 197.047 49.0066C197.173 48.8432 197.269 48.6583 197.329 48.4608C197.404 48.2502 197.454 48.0316 197.479 47.8094C197.53 47.3178 197.53 46.8221 197.479 46.3305C197.455 46.1139 197.405 45.901 197.329 45.6967C197.27 45.5051 197.171 45.3281 197.038 45.1774C196.905 45.0316 196.739 44.9199 196.554 44.8517C196.327 44.7644 196.085 44.7226 195.841 44.7284ZM197.091 49.9485C196.697 50.1178 196.27 50.1989 195.841 50.1862C195.409 50.1982 194.98 50.1172 194.582 49.9485C194.255 49.8007 193.979 49.5586 193.79 49.2531C193.607 48.9514 193.476 48.6211 193.403 48.276C193.236 47.4866 193.236 46.671 193.403 45.8816C193.482 45.5295 193.605 45.2214 193.79 44.9309C193.966 44.6404 194.23 44.4115 194.582 44.2619C194.935 44.1034 195.348 44.0242 195.841 44.0242C196.27 44.0115 196.697 44.0926 197.091 44.2619C197.418 44.3979 197.695 44.6315 197.883 44.9309C198.072 45.221 198.207 45.5432 198.28 45.8816C198.447 46.671 198.447 47.4866 198.28 48.276C198.206 48.6223 198.072 48.9531 197.883 49.2531C197.694 49.5586 197.419 49.8007 197.091 49.9485Z" fill="white"/>
<path d="M143.061 44.1125V48.602C143.061 49.1742 142.938 49.5791 142.7 49.8256C142.463 50.0633 142.119 50.1865 141.653 50.1865C141.379 50.1862 141.105 50.1656 140.834 50.1249L140.913 49.4207C141.085 49.4459 141.259 49.4606 141.433 49.4647C141.697 49.4647 141.899 49.3943 142.031 49.2534C142.163 49.1126 142.225 48.8837 142.225 48.558V44.1125H143.061Z" fill="white"/>
<path d="M150.077 49.4818C150.314 49.4818 150.517 49.4466 150.693 49.385C150.869 49.3234 151.001 49.2441 151.098 49.1473C151.195 49.0593 151.274 48.936 151.327 48.7952C151.381 48.6685 151.42 48.5354 151.441 48.399C151.459 48.2758 151.468 48.135 151.468 47.9853V44.112H152.304V47.9853C152.304 49.4554 151.556 50.186 150.059 50.186C148.563 50.186 147.814 49.4554 147.814 47.9853V44.112H148.651V47.9853C148.651 48.1878 148.668 48.355 148.695 48.5047C148.73 48.668 148.79 48.8252 148.871 48.9712C148.972 49.1422 149.127 49.2752 149.311 49.3498C149.555 49.4448 149.815 49.4897 150.077 49.4818Z" fill="white"/>
<path d="M161.564 50.0986H160.587L159.169 47.7659H157.893V50.0986H157.057V44.1127H159.521C160.102 44.1127 160.551 44.2887 160.877 44.6232C161.044 44.799 161.173 45.0065 161.258 45.2333C161.342 45.4602 161.381 45.7018 161.37 45.9437C161.382 46.3426 161.258 46.7337 161.018 47.0528C160.779 47.3647 160.429 47.5727 160.041 47.6338L161.564 50.0986ZM157.893 44.8609V47.0176H159.389C159.733 47.0176 160.006 46.9296 160.199 46.7447C160.402 46.5687 160.507 46.2958 160.507 45.9437C160.516 45.7987 160.495 45.6536 160.445 45.5173C160.395 45.381 160.317 45.2564 160.217 45.1514C160.114 45.0514 159.991 44.9739 159.856 44.9239C159.721 44.8739 159.577 44.8524 159.433 44.8609H157.893Z" fill="white"/>
<path d="M166.916 50.0986H166.08V44.1127H166.916V50.0986Z" fill="white"/>
<path d="M173.798 50.0986H171.668V44.1127H173.798C174.274 44.1127 174.679 44.1831 175.013 44.3327C175.333 44.463 175.608 44.6832 175.805 44.9665C175.995 45.2475 176.133 45.5607 176.21 45.8908C176.297 46.2749 176.338 46.6679 176.333 47.0616C176.333 49.0863 175.488 50.0986 173.798 50.0986ZM172.504 49.3504H173.798C174.414 49.3504 174.855 49.1479 175.092 48.7518C175.33 48.3469 175.453 47.7835 175.453 47.0616C175.453 46.3574 175.33 45.8116 175.092 45.4331C174.855 45.0546 174.423 44.8609 173.798 44.8609H172.504V49.3504Z" fill="white"/>
<path d="M181.729 50.0991H180.893V44.1131H181.729V50.0991Z" fill="white"/>
<path d="M186.289 47.061C186.289 46.6208 186.324 46.2247 186.404 45.8814C186.483 45.5293 186.606 45.2212 186.791 44.9307C186.967 44.6402 187.231 44.4113 187.583 44.2617C187.935 44.1032 188.349 44.024 188.842 44.024C189.543 44.027 190.24 44.1307 190.911 44.3321L190.717 45.0363C190.125 44.8791 189.516 44.7905 188.904 44.7722C188.609 44.7637 188.317 44.824 188.05 44.9483C187.826 45.0556 187.639 45.2272 187.513 45.4413C187.387 45.6662 187.298 45.9099 187.249 46.1631C187.192 46.459 187.166 46.7598 187.17 47.061C187.17 47.818 187.293 48.4078 187.548 48.8216C187.812 49.2353 188.252 49.4378 188.904 49.4378C189.388 49.4378 189.986 49.3497 190.717 49.1737L190.911 49.8779C190.24 50.0793 189.543 50.1831 188.842 50.186C188.484 50.1923 188.127 50.1388 187.786 50.0276C187.514 49.933 187.266 49.7831 187.055 49.5874C186.861 49.3895 186.705 49.1565 186.597 48.9008C186.481 48.6273 186.398 48.3405 186.351 48.0469C186.308 47.7201 186.287 47.3907 186.289 47.061Z" fill="white"/>
<mask id="mask0_73_2594" style="mask-type:luminance" maskUnits="userSpaceOnUse" x="76" y="5" width="14" height="15">
<path d="M80.8555 5.9113L76.7207 19.7285H80.5525L81.2589 17.0061H84.6877L85.3941 19.7285H89.428L85.2928 5.9113H80.8555ZM82.9529 10.45H82.9937L83.9614 13.9797H81.9852L82.9529 10.45Z" fill="white"/>
</mask>
<g mask="url(#mask0_73_2594)">
<rect x="76.3984" y="5.55811" width="13.0909" height="14.5455" fill="white"/>
</g>
<mask id="mask1_73_2594" style="mask-type:luminance" maskUnits="userSpaceOnUse" x="90" y="6" width="10" height="14">
<path d="M90.0918 6.01118V19.7285H99.7742V16.5009H93.7223V6.01118H90.0918Z" fill="white"/>
</mask>
<g mask="url(#mask1_73_2594)">
<rect x="89.9707" y="5.55859" width="10.1818" height="14.5455" fill="white"/>
</g>
<mask id="mask2_73_2594" style="mask-type:luminance" maskUnits="userSpaceOnUse" x="100" y="6" width="11" height="14">
<path d="M100.884 6.01118V9.23882H105.826V9.28003L100.48 17.106V19.7285H110.97V16.5009H105.524V16.4611L110.768 8.63421V6.01118H100.884Z" fill="white"/>
</mask>
<g mask="url(#mask2_73_2594)">
<rect x="100.154" y="5.55859" width="11.1515" height="14.5455" fill="white"/>
</g>
<mask id="mask3_73_2594" style="mask-type:luminance" maskUnits="userSpaceOnUse" x="111" y="5" width="14" height="15">
<path d="M115.611 5.91081L111.477 19.728H115.309L116.015 17.0056H119.444L120.15 19.728H124.184L120.049 5.91081H115.611ZM117.709 10.4495H117.75L118.718 13.9792H116.741L117.709 10.4495Z" fill="white"/>
</mask>
<g mask="url(#mask3_73_2594)">
<rect x="111.307" y="5.55762" width="13.0909" height="14.5455" fill="white"/>
</g>
<mask id="mask4_73_2594" style="mask-type:luminance" maskUnits="userSpaceOnUse" x="124" y="6" width="16" height="14">
<path d="M134.53 6.01118L132.251 13.6771H132.21L129.689 6.01118H124.848V19.7285H128.378V12.4674H128.419L130.698 19.7285H133.32L135.7 12.4674H135.74V19.7285H139.371V6.01118H134.53Z" fill="white"/>
</mask>
<g mask="url(#mask4_73_2594)">
<rect x="124.396" y="5.55859" width="15.0302" height="14.5455" fill="white"/>
</g>
<mask id="mask5_73_2594" style="mask-type:luminance" maskUnits="userSpaceOnUse" x="140" y="5" width="14" height="15">
<path d="M143.727 6.33503C142.881 6.6846 142.221 7.18545 141.751 7.83757C141.279 8.49259 140.937 9.23186 140.742 10.0155C140.541 10.816 140.439 11.7343 140.439 12.769C140.439 17.5423 142.558 19.9307 146.793 19.9307C151.03 19.9307 153.147 17.5423 153.147 12.769C153.147 11.7343 153.047 10.816 152.845 10.0155C152.651 9.23201 152.308 8.49281 151.837 7.83757C151.366 7.18545 150.707 6.6846 149.86 6.33503C149.012 5.98497 147.99 5.81042 146.793 5.81042C145.596 5.81042 144.575 5.98497 143.727 6.33503ZM144.787 15.8851C144.443 15.2073 144.272 14.1682 144.272 12.769C144.272 11.3983 144.443 10.399 144.787 9.77309C145.129 9.1486 145.798 8.83539 146.793 8.83539C147.789 8.83539 148.457 9.1486 148.801 9.77309C149.143 10.399 149.315 11.3983 149.315 12.769C149.315 14.1682 149.143 15.2073 148.801 15.8851C148.457 16.5649 147.789 16.9047 146.793 16.9047C145.798 16.9047 145.129 16.5649 144.787 15.8851Z" fill="white"/>
</mask>
<g mask="url(#mask5_73_2594)">
<rect x="140.396" y="5.55859" width="13.0909" height="14.5455" fill="white"/>
</g>
<mask id="mask6_73_2594" style="mask-type:luminance" maskUnits="userSpaceOnUse" x="154" y="6" width="12" height="14">
<path d="M154.217 6.01118V19.7285H157.848V15.2912H158.897L161.377 19.7285H165.614L162.689 14.6851C164.302 14.0272 165.109 12.6817 165.109 10.6512C165.109 9.18645 164.682 8.04608 163.828 7.23154C162.975 6.41845 161.788 6.01118 160.269 6.01118H154.217ZM157.848 9.23882H159.865C160.336 9.23882 160.705 9.33725 160.974 9.53216C161.243 9.72707 161.377 10.1004 161.377 10.6512C161.377 11.2029 161.243 11.5753 160.974 11.7702C160.705 11.9661 160.336 12.0635 159.865 12.0635H157.848V9.23882Z" fill="white"/>
</mask>
<g mask="url(#mask6_73_2594)">
<rect x="153.973" y="5.55859" width="12.1212" height="14.5455" fill="white"/>
</g>
<mask id="mask7_73_2594" style="mask-type:luminance" maskUnits="userSpaceOnUse" x="165" y="5" width="14" height="15">
<path d="M170.051 5.9113L165.916 19.7285H169.748L170.455 17.0061H173.884L174.59 19.7285H178.624L174.489 5.9113H170.051ZM172.149 10.45H172.189L173.157 13.9797H171.181L172.149 10.45Z" fill="white"/>
</mask>
<g mask="url(#mask7_73_2594)">
<rect x="165.609" y="5.55811" width="13.0909" height="14.5455" fill="white"/>
</g>
<mask id="mask8_73_2594" style="mask-type:luminance" maskUnits="userSpaceOnUse" x="76" y="24" width="15" height="15">
<path d="M79.6144 25.1439C78.761 25.7757 78.3339 26.6499 78.3339 27.7665C78.3339 28.1961 78.425 28.6135 78.6064 29.0164C78.7882 29.4198 79.1208 29.9308 79.6052 30.549C78.4886 31.2487 77.7288 31.8906 77.3254 32.4758C76.9268 33.0459 76.7155 33.7259 76.7208 34.4215C76.7208 35.606 77.1441 36.55 77.9911 37.2569C78.8386 37.9624 80.1293 38.3158 81.8641 38.3158C83.4238 38.3158 84.8221 37.9449 86.0594 37.2055L87.7137 38.9204L89.9329 36.5L88.4803 35.0077C89.4083 33.7437 89.9595 32.4249 90.1346 31.0533H86.9069C86.826 31.5643 86.6175 32.1224 86.2815 32.7284L84.3659 30.9524C85.9246 29.9982 86.7053 28.9292 86.7053 27.7452C86.7053 26.6436 86.3489 25.7757 85.6362 25.1439C84.9234 24.5117 83.9348 24.1956 82.6708 24.1956C81.4873 24.1956 80.4692 24.5117 79.6144 25.1439ZM81.6624 27.6239C81.6624 27.2753 81.7433 27.0033 81.9048 26.807C82.0658 26.6121 82.2873 26.5146 82.5705 26.5146C83.1751 26.5146 83.4776 26.8845 83.4776 27.6239C83.4776 28.1083 83.1213 28.6067 82.4085 29.1178C81.9106 28.5655 81.6624 28.0685 81.6624 27.6239ZM80.8755 34.9975C80.5259 34.7357 80.3513 34.3619 80.3513 33.877C80.3513 33.2729 80.6805 32.7342 81.3394 32.2635L83.9615 35.0077C83.3836 35.2622 82.7513 35.3907 82.0658 35.3907C81.6216 35.3907 81.225 35.2598 80.8755 34.9975Z" fill="white"/>
</mask>
<g mask="url(#mask8_73_2594)">
<rect x="76.3965" y="23.9829" width="14.0605" height="15.0303" fill="white"/>
</g>
<mask id="mask9_73_2594" style="mask-type:luminance" maskUnits="userSpaceOnUse" x="93" y="24" width="14" height="15">
<path d="M98.1001 24.2966L93.9648 38.1133H97.7971L98.503 35.3904H101.932L102.639 38.1133H106.673L102.537 24.2966H98.1001ZM100.198 28.8352H100.238L101.206 32.3644H99.2298L100.198 28.8352Z" fill="white"/>
</mask>
<g mask="url(#mask9_73_2594)">
<rect x="93.8516" y="23.9829" width="13.0909" height="14.5455" fill="white"/>
</g>
<mask id="mask10_73_2594" style="mask-type:luminance" maskUnits="userSpaceOnUse" x="106" y="24" width="12" height="15">
<path d="M108.569 25.1838C107.587 25.8427 107.096 26.8585 107.096 28.2296C107.096 30.4076 108.408 31.8878 111.03 32.667C111.245 32.7343 111.558 32.8221 111.968 32.9292C112.256 33.0028 112.542 33.0836 112.825 33.1717C113.017 33.2372 113.205 33.3114 113.39 33.3942C113.605 33.4878 113.753 33.5988 113.834 33.7263C113.917 33.8632 113.959 34.021 113.955 34.1811C113.955 34.7852 113.417 35.0878 112.341 35.0878C110.889 35.0878 109.275 34.8866 107.5 34.4827L106.895 37.5082C108.661 38.0432 110.496 38.3154 112.341 38.3159C113.955 38.3159 115.265 37.9489 116.274 37.2158C117.283 36.4842 117.787 35.37 117.787 33.8771C117.787 31.6992 116.408 30.2868 113.652 29.6425C113.579 29.625 113.505 29.611 113.43 29.6008C112.502 29.386 111.854 29.1979 111.484 29.0369C111.113 28.8754 110.929 28.6403 110.929 28.3309C110.929 28.0347 111.06 27.8102 111.322 27.6551C111.584 27.5004 111.924 27.4228 112.341 27.4228C113.39 27.4228 114.801 27.624 116.577 28.0289L117.384 25.0025C115.595 24.4643 113.915 24.1957 112.341 24.1957C110.808 24.1957 109.551 24.5254 108.569 25.1838Z" fill="white"/>
</mask>
<g mask="url(#mask10_73_2594)">
<rect x="106.457" y="23.9829" width="11.6363" height="14.5455" fill="white"/>
</g>
<mask id="mask11_73_2594" style="mask-type:luminance" maskUnits="userSpaceOnUse" x="118" y="24" width="14" height="15">
<path d="M121.946 24.7208C121.099 25.0708 120.44 25.5712 119.97 26.2228C119.498 26.878 119.155 27.6175 118.961 28.4013C118.76 29.2022 118.658 30.1196 118.658 31.1552C118.658 35.9285 120.777 38.3164 125.012 38.3164C129.248 38.3164 131.366 35.9285 131.366 31.1552C131.366 30.1196 131.265 29.2022 131.063 28.4013C130.869 27.6175 130.527 26.878 130.055 26.2228C129.584 25.5712 128.925 25.0708 128.078 24.7208C127.231 24.3712 126.209 24.1962 125.012 24.1962C123.815 24.1962 122.793 24.3712 121.946 24.7208ZM123.005 34.2713C122.663 33.593 122.49 32.554 122.49 31.1552C122.49 29.7836 122.663 28.7848 123.005 28.1593C123.348 27.5348 124.017 27.2211 125.012 27.2211C126.008 27.2211 126.677 27.5348 127.019 28.1593C127.362 28.7848 127.533 29.7836 127.533 31.1552C127.533 32.554 127.362 33.593 127.019 34.2713C126.677 34.9506 126.008 35.29 125.012 35.29C124.017 35.29 123.348 34.9506 123.005 34.2713Z" fill="white"/>
</mask>
<g mask="url(#mask11_73_2594)">
<rect x="118.58" y="23.9834" width="13.0909" height="14.5455" fill="white"/>
</g>
<mask id="mask12_73_2594" style="mask-type:luminance" maskUnits="userSpaceOnUse" x="132" y="24" width="12" height="15">
<path d="M135.762 24.7208C134.915 25.0708 134.256 25.5712 133.786 26.2228C133.314 26.8781 132.972 27.6175 132.777 28.4013C132.576 29.2022 132.475 30.1196 132.475 31.1552C132.475 35.9285 134.593 38.3164 138.829 38.3164C140.469 38.3164 142.184 38.0468 143.972 37.5086L143.165 34.4832C141.391 34.8871 140.046 35.0883 139.132 35.0883C138.163 35.0883 137.451 34.7722 136.993 34.1399C136.536 33.5082 136.307 32.5142 136.307 31.1552C136.307 28.6674 137.249 27.4233 139.132 27.4233C140.046 27.4233 141.391 27.6245 143.165 28.0294L143.972 25.0029C142.184 24.4648 140.469 24.1962 138.829 24.1962C137.631 24.1962 136.61 24.3712 135.762 24.7208Z" fill="white"/>
</mask>
<g mask="url(#mask12_73_2594)">
<rect x="132.156" y="23.9834" width="12.1212" height="14.5455" fill="white"/>
</g>
<mask id="mask13_73_2594" style="mask-type:luminance" maskUnits="userSpaceOnUse" x="144" y="24" width="5" height="15">
<path d="M144.838 38.1133H148.468V24.396H144.838V38.1133Z" fill="white"/>
</mask>
<g mask="url(#mask13_73_2594)">
<rect x="144.76" y="23.9824" width="3.87877" height="14.5455" fill="white"/>
</g>
<mask id="mask14_73_2594" style="mask-type:luminance" maskUnits="userSpaceOnUse" x="149" y="24" width="13" height="15">
<path d="M153.27 24.2966L149.135 38.1133H152.967L153.673 35.3904H157.103L157.809 38.1133H161.843L157.708 24.2966H153.27ZM155.367 28.8352H155.408L156.376 32.3644H154.4L155.367 28.8352Z" fill="white"/>
</mask>
<g mask="url(#mask14_73_2594)">
<rect x="149.125" y="23.9829" width="13.0909" height="14.5455" fill="white"/>
</g>
<mask id="mask15_73_2594" style="mask-type:luminance" maskUnits="userSpaceOnUse" x="162" y="24" width="13" height="15">
<path d="M162.51 24.3964V38.1133H167.855C169.052 38.1133 170.073 37.9383 170.921 37.5892C171.768 37.2391 172.427 36.7383 172.898 36.0861C173.37 35.4309 173.712 34.6917 173.907 33.9082C174.108 33.1072 174.209 32.1899 174.209 31.1543C174.209 30.1186 174.108 29.2071 173.907 28.4207C173.716 27.6575 173.373 26.9407 172.898 26.3131C172.427 25.6954 171.768 25.2207 170.921 24.891C170.073 24.5613 169.052 24.3964 167.855 24.3964H162.51ZM166.14 27.6236H167.855C168.877 27.6236 169.553 27.8835 169.882 28.4003C170.212 28.9186 170.376 29.8364 170.376 31.1543C170.376 32.4992 170.208 33.4573 169.872 34.0284C169.536 34.6001 168.864 34.8861 167.855 34.8861H166.14V27.6236Z" fill="white"/>
</mask>
<g mask="url(#mask15_73_2594)">
<rect x="162.217" y="23.9829" width="12.1212" height="14.5455" fill="white"/>
</g>
<mask id="mask16_73_2594" style="mask-type:luminance" maskUnits="userSpaceOnUse" x="175" y="24" width="14" height="15">
<path d="M178.605 24.7208C177.758 25.0708 177.098 25.5712 176.628 26.2228C176.156 26.878 175.814 27.6175 175.619 28.4013C175.418 29.2022 175.316 30.1196 175.316 31.1552C175.316 35.9285 177.435 38.3164 181.67 38.3164C185.907 38.3164 188.024 35.9285 188.024 31.1552C188.024 30.1196 187.924 29.2022 187.722 28.4013C187.528 27.6175 187.185 26.8781 186.714 26.2228C186.243 25.5712 185.584 25.0708 184.737 24.7208C183.889 24.3712 182.867 24.1962 181.67 24.1962C180.474 24.1962 179.452 24.3712 178.605 24.7208ZM179.664 34.2713C179.321 33.593 179.149 32.554 179.149 31.1552C179.149 29.7836 179.321 28.7848 179.664 28.1593C180.006 27.5348 180.675 27.2211 181.67 27.2211C182.666 27.2211 183.335 27.5348 183.678 28.1593C184.02 28.7848 184.192 29.7836 184.192 31.1552C184.192 32.554 184.02 33.593 183.678 34.2713C183.335 34.9506 182.666 35.29 181.67 35.29C180.675 35.29 180.006 34.9506 179.664 34.2713Z" fill="white"/>
</mask>
<g mask="url(#mask16_73_2594)">
<rect x="175.307" y="23.9834" width="13.0909" height="14.5455" fill="white"/>
</g>
<mask id="mask17_73_2594" style="mask-type:luminance" maskUnits="userSpaceOnUse" x="188" y="24" width="12" height="15">
<path d="M190.325 25.1838C189.343 25.8427 188.852 26.8585 188.852 28.2296C188.852 30.4076 190.163 31.8878 192.785 32.667C193 32.7343 193.313 32.8221 193.723 32.9292C194.011 33.0028 194.297 33.0837 194.581 33.1717C194.742 33.2255 194.931 33.2992 195.145 33.3942C195.361 33.4878 195.509 33.5988 195.59 33.7263C195.672 33.8633 195.715 34.0211 195.711 34.1811C195.711 34.7852 195.172 35.0878 194.097 35.0878C192.645 35.0878 191.031 34.8866 189.256 34.4827L188.65 37.5082C190.417 38.0432 192.252 38.3154 194.097 38.3159C195.711 38.3159 197.021 37.9489 198.029 37.2158C199.039 36.4842 199.543 35.37 199.543 33.8771C199.543 31.6992 198.164 30.2868 195.407 29.6425C195.334 29.6248 195.26 29.6109 195.186 29.6008C194.258 29.386 193.609 29.1979 193.239 29.0369C192.869 28.8754 192.684 28.6403 192.684 28.3309C192.684 28.0347 192.815 27.8102 193.078 27.6551C193.34 27.5004 193.68 27.4228 194.097 27.4228C195.145 27.4228 196.557 27.624 198.333 28.0289L199.139 25.0025C197.351 24.4643 195.67 24.1957 194.097 24.1957C192.564 24.1957 191.306 24.5254 190.325 25.1838Z" fill="white"/>
</mask>
<g mask="url(#mask17_73_2594)">
<rect x="188.396" y="23.9829" width="11.1515" height="14.5455" fill="white"/>
</g>
</svg>
