<svg width="33" height="33" viewBox="0 0 33 33" fill="none" xmlns="http://www.w3.org/2000/svg">
<circle cx="16.1543" cy="16.7881" r="16" fill="white"/>
<g clip-path="url(#clip0_24_550)">
<path d="M21.0346 12.4962C20.9333 12.4439 20.8348 12.3865 20.7393 12.3243C20.4615 12.1407 20.2069 11.9244 19.9808 11.68C19.4152 11.0328 19.2039 10.3762 19.1261 9.91652H19.1293C19.0643 9.53496 19.0911 9.28809 19.0952 9.28809H16.5189V19.25C16.5189 19.3837 16.5189 19.5159 16.5133 19.6465C16.5133 19.6628 16.5118 19.6778 16.5108 19.6953C16.5108 19.7025 16.5108 19.71 16.5093 19.7175C16.5093 19.7193 16.5093 19.7212 16.5093 19.7231C16.4821 20.0805 16.3675 20.4258 16.1756 20.7286C15.9837 21.0313 15.7203 21.2823 15.4086 21.4593C15.0838 21.6441 14.7164 21.7411 14.3427 21.7406C13.1424 21.7406 12.1696 20.7618 12.1696 19.5531C12.1696 18.3443 13.1424 17.3656 14.3427 17.3656C14.5699 17.3654 14.7957 17.4011 15.0118 17.4715L15.0149 14.8484C14.3591 14.7637 13.6928 14.8158 13.0581 15.0015C12.4234 15.1871 11.8341 15.5023 11.3274 15.9271C10.8833 16.313 10.51 16.7733 10.2243 17.2875C10.1155 17.475 9.70519 18.2284 9.6555 19.4512C9.62425 20.1453 9.83269 20.8643 9.93207 21.1615V21.1678C9.99457 21.3428 10.2368 21.94 10.6314 22.4434C10.9497 22.8472 11.3257 23.202 11.7474 23.4962V23.49L11.7536 23.4962C13.0008 24.3437 14.3836 24.2881 14.3836 24.2881C14.623 24.2784 15.4249 24.2881 16.3355 23.8565C17.3455 23.3781 17.9205 22.6653 17.9205 22.6653C18.2878 22.2394 18.5799 21.754 18.7843 21.23C19.0174 20.6171 19.0952 19.8821 19.0952 19.5884V14.3034C19.1264 14.3221 19.5427 14.5975 19.5427 14.5975C19.5427 14.5975 20.1424 14.9818 21.078 15.2321C21.7493 15.4103 22.6536 15.4478 22.6536 15.4478V12.8903C22.3368 12.9246 21.6933 12.8246 21.0346 12.4962Z" fill="#1C1C1A"/>
</g>
<defs>
<clipPath id="clip0_24_550">
<rect width="16" height="16" fill="white" transform="translate(8.1543 8.78809)"/>
</clipPath>
</defs>
</svg>
