<svg width="32" height="33" viewBox="0 0 32 33" fill="none" xmlns="http://www.w3.org/2000/svg">
<circle cx="16" cy="16.7881" r="16" fill="white"/>
<path fill-rule="evenodd" clip-rule="evenodd" d="M21.6 11.0881C20.1 9.58809 18.1 8.78809 16 8.78809C11.6 8.78809 8 12.3881 8 16.7881C8 18.1881 8.40001 19.5881 9.10001 20.7881L8 24.7881L12.2 23.6881C13.4 24.2881 14.7 24.6881 16 24.6881C20.4 24.6881 24 21.0881 24 16.6881C24 14.5881 23.1 12.5881 21.6 11.0881ZM16 23.3881C14.8 23.3881 13.6 23.0881 12.6 22.4881L12.4 22.3881L9.89999 23.0881L10.6 20.6881L10.4 20.3881C9.69999 19.2881 9.39999 18.0881 9.39999 16.8881C9.39999 13.2881 12.4 10.2881 16 10.2881C17.8 10.2881 19.4 10.9881 20.7 12.1881C22 13.4881 22.6 15.0881 22.6 16.8881C22.6 20.3881 19.7 23.3881 16 23.3881ZM19.6 18.3881C19.4 18.2881 18.4 17.7881 18.2 17.7881C18 17.6881 17.9 17.6881 17.8 17.8881C17.7 18.0881 17.3 18.4881 17.2 18.6881C17.1 18.7881 17 18.7881 16.8 18.7881C16.6 18.6881 16 18.4881 15.2 17.7881C14.6 17.2881 14.2 16.5881 14.1 16.3881C14 16.1881 14.1 16.0881 14.2 15.9881C14.3 15.8881 14.4 15.7881 14.5 15.6881C14.6 15.5881 14.6 15.4881 14.7 15.3881C14.8 15.2881 14.7 15.1881 14.7 15.0881C14.7 14.9881 14.3 13.9881 14.1 13.5881C14 13.2881 13.8 13.2881 13.7 13.2881C13.6 13.2881 13.5 13.2881 13.3 13.2881C13.2 13.2881 13 13.2881 12.8 13.4881C12.6 13.6881 12.1 14.1881 12.1 15.1881C12.1 16.1881 12.8 17.0881 12.9 17.2881C13 17.3881 14.3 19.4881 16.3 20.2881C18 20.9881 18.3 20.7881 18.7 20.7881C19.1 20.7881 19.9 20.2881 20 19.8881C20.2 19.3881 20.2 18.9881 20.1 18.9881C20 18.4881 19.8 18.4881 19.6 18.3881Z" fill="#1C1C1A"/>
</svg>
